# xmcd
#
# Track frame offsets: 
#        150
#        11872
#        26135
#        36197
#        48620
#        62762
#        74290
#        89435
#        102492
#        114860
#        129710
#        144455
#        158760
#        171712
#        184327
#        195912
#        209142
#        229532
#
# Disc length: 3217 seconds
#
# Revision: 2
# Processed by: cddbd v1.5.2PL0 Copyright (c) Steve Scherf et al.
# Submitted via: ExactAudioCopy v0.95b4
#
DISCID=0d0c8f12
DTITLE=Merle Haggard - More of the Best
DYEAR=1990
DGENRE=Country
TTITLE0=Sing a Sad Song
TTITLE1=Branded Man
TTITLE2=Mama Tried
TTITLE3=SIlver Wings
TTITLE4=White Line Fever
TTITLE5=Someday We'll Look Back
TTITLE6=It's Not Love (But It's Not Bad)
TTITLE7=Everybody's Had the Blues
TTITLE8=If We Make It Through December
TTITLE9=It's All in the Moves
TTITLE10=If We're Not Back in Love by Monday
TTITLE11=Ramblin' Fever
TTITLE12=I'm Always on a Mountain When I Fall
TTITLE13=It's Been a Great Afternoon
TTITLE14=Red Bandana
TTITLE15=My Own Kind of Hat
TTITLE16=I Think I'll Just Stay Here and Drink
TTITLE17=Rainbow Stew
EXTD=
EXTT0=
EXTT1=
EXTT2=
EXTT3=
EXTT4=
EXTT5=
EXTT6=
EXTT7=
EXTT8=
EXTT9=
EXTT10=
EXTT11=
EXTT12=
EXTT13=
EXTT14=
EXTT15=
EXTT16=
EXTT17=
PLAYORDER=
